<svg xmlns="http://www.w3.org/2000/svg" xmlns:xlink="http://www.w3.org/1999/xlink" width="500" zoomAndPan="magnify" viewBox="0 0 375 299.999988" height="400" preserveAspectRatio="xMidYMid meet" version="1.0"><defs><g/></defs><g fill="#a6a6a6" fill-opacity="0.302"><g transform="translate(15.907463, 144.62866)"><g><path d="M 16.9375 -2.328125 C 21.394531 -2.328125 24.210938 -4.382812 25.390625 -8.5 L 28.453125 -8.5 C 28.453125 -7.394531 28.15625 -6.304688 27.5625 -5.234375 C 26.96875 -4.160156 26.128906 -3.207031 25.046875 -2.375 C 22.671875 -0.507812 19.613281 0.421875 15.875 0.421875 C 12.144531 0.421875 8.945312 -0.820312 6.28125 -3.3125 C 3.195312 -6.1875 1.65625 -10.390625 1.65625 -15.921875 C 1.65625 -20.335938 2.84375 -24.0625 5.21875 -27.09375 C 6.90625 -29.257812 9.148438 -30.765625 11.953125 -31.609375 C 13.398438 -32.054688 14.984375 -32.28125 16.703125 -32.28125 C 20.117188 -32.28125 22.921875 -31.492188 25.109375 -29.921875 C 27.304688 -28.359375 28.40625 -26.394531 28.40625 -24.03125 C 28.40625 -22.257812 27.710938 -21.070312 26.328125 -20.46875 C 25.921875 -20.28125 25.472656 -20.1875 24.984375 -20.1875 C 23.503906 -20.1875 22.507812 -20.816406 22 -22.078125 C 21.84375 -22.472656 21.765625 -22.941406 21.765625 -23.484375 C 21.765625 -24.035156 21.921875 -24.578125 22.234375 -25.109375 C 22.546875 -25.640625 22.957031 -26.046875 23.46875 -26.328125 C 22.320312 -28.523438 20.265625 -29.625 17.296875 -29.625 C 14.335938 -29.625 11.929688 -28.5 10.078125 -26.25 C 8.222656 -24.007812 7.296875 -20.640625 7.296875 -16.140625 C 7.296875 -11.648438 8.238281 -8.222656 10.125 -5.859375 C 12.007812 -3.503906 14.28125 -2.328125 16.9375 -2.328125 Z M 16.9375 -2.328125 "/></g></g></g><g fill="#a6a6a6" fill-opacity="0.302"><g transform="translate(47.555602, 144.62866)"><g><path d="M 27.3125 -2.640625 C 28.414062 -2.640625 28.96875 -3.910156 28.96875 -6.453125 L 31 -6.453125 C 31.15625 -5.941406 31.234375 -5.492188 31.234375 -5.109375 C 31.234375 -4.734375 31.222656 -4.320312 31.203125 -3.875 C 31.191406 -3.425781 31.023438 -2.84375 30.703125 -2.125 C 29.921875 -0.425781 28.460938 0.421875 26.328125 0.421875 C 24.191406 0.421875 22.6875 -0.113281 21.8125 -1.1875 C 20.945312 -2.257812 20.328125 -3.351562 19.953125 -4.46875 C 19.585938 -5.582031 19.289062 -6.554688 19.0625 -7.390625 C 18.414062 -9.671875 17.894531 -11.15625 17.5 -11.84375 C 16.769531 -13.175781 15.785156 -13.84375 14.546875 -13.84375 L 9.875 -13.84375 L 9.875 -5.71875 C 9.875 -4.988281 9.90625 -4.40625 9.96875 -3.96875 C 10.039062 -3.53125 10.289062 -3.144531 10.71875 -2.8125 C 11.15625 -2.488281 12.476562 -2.328125 14.6875 -2.328125 L 14.6875 0 L 1.546875 0 L 1.546875 -2.328125 C 3.035156 -2.328125 3.960938 -2.457031 4.328125 -2.71875 C 4.703125 -2.988281 4.921875 -3.269531 4.984375 -3.5625 C 5.054688 -3.863281 5.09375 -4.226562 5.09375 -4.65625 L 5.09375 -27.203125 C 5.09375 -28.117188 4.9375 -28.691406 4.625 -28.921875 C 4.0625 -29.316406 3.03125 -29.515625 1.53125 -29.515625 L 1.53125 -31.84375 L 14.5625 -31.84375 C 21.53125 -31.84375 25.40625 -29.691406 26.1875 -25.390625 C 26.3125 -24.679688 26.375 -23.851562 26.375 -22.90625 C 26.375 -20.875 25.734375 -19.140625 24.453125 -17.703125 C 23.171875 -16.265625 21.425781 -15.226562 19.21875 -14.59375 C 21.125 -14.007812 22.546875 -12.476562 23.484375 -10 C 23.796875 -9.195312 24.132812 -8.15625 24.5 -6.875 C 24.863281 -5.601562 25.160156 -4.726562 25.390625 -4.25 C 25.890625 -3.175781 26.53125 -2.640625 27.3125 -2.640625 Z M 14.609375 -15.96875 C 17.023438 -15.96875 18.734375 -16.550781 19.734375 -17.71875 C 20.742188 -18.882812 21.25 -20.566406 21.25 -22.765625 C 21.25 -24.972656 20.660156 -26.648438 19.484375 -27.796875 C 18.316406 -28.941406 16.257812 -29.515625 13.3125 -29.515625 L 9.875 -29.515625 L 9.875 -15.96875 Z M 14.609375 -15.96875 "/></g></g></g><g fill="#a6a6a6" fill-opacity="0.502"><g transform="translate(16.495294, 145.606979)"><g><path d="M 16.9375 -2.328125 C 21.394531 -2.328125 24.210938 -4.382812 25.390625 -8.5 L 28.453125 -8.5 C 28.453125 -7.394531 28.15625 -6.304688 27.5625 -5.234375 C 26.96875 -4.160156 26.128906 -3.207031 25.046875 -2.375 C 22.671875 -0.507812 19.613281 0.421875 15.875 0.421875 C 12.144531 0.421875 8.945312 -0.820312 6.28125 -3.3125 C 3.195312 -6.1875 1.65625 -10.390625 1.65625 -15.921875 C 1.65625 -20.335938 2.84375 -24.0625 5.21875 -27.09375 C 6.90625 -29.257812 9.148438 -30.765625 11.953125 -31.609375 C 13.398438 -32.054688 14.984375 -32.28125 16.703125 -32.28125 C 20.117188 -32.28125 22.921875 -31.492188 25.109375 -29.921875 C 27.304688 -28.359375 28.40625 -26.394531 28.40625 -24.03125 C 28.40625 -22.257812 27.710938 -21.070312 26.328125 -20.46875 C 25.921875 -20.28125 25.472656 -20.1875 24.984375 -20.1875 C 23.503906 -20.1875 22.507812 -20.816406 22 -22.078125 C 21.84375 -22.472656 21.765625 -22.941406 21.765625 -23.484375 C 21.765625 -24.035156 21.921875 -24.578125 22.234375 -25.109375 C 22.546875 -25.640625 22.957031 -26.046875 23.46875 -26.328125 C 22.320312 -28.523438 20.265625 -29.625 17.296875 -29.625 C 14.335938 -29.625 11.929688 -28.5 10.078125 -26.25 C 8.222656 -24.007812 7.296875 -20.640625 7.296875 -16.140625 C 7.296875 -11.648438 8.238281 -8.222656 10.125 -5.859375 C 12.007812 -3.503906 14.28125 -2.328125 16.9375 -2.328125 Z M 16.9375 -2.328125 "/></g></g></g><g fill="#a6a6a6" fill-opacity="0.502"><g transform="translate(48.143432, 145.606979)"><g><path d="M 27.3125 -2.640625 C 28.414062 -2.640625 28.96875 -3.910156 28.96875 -6.453125 L 31 -6.453125 C 31.15625 -5.941406 31.234375 -5.492188 31.234375 -5.109375 C 31.234375 -4.734375 31.222656 -4.320312 31.203125 -3.875 C 31.191406 -3.425781 31.023438 -2.84375 30.703125 -2.125 C 29.921875 -0.425781 28.460938 0.421875 26.328125 0.421875 C 24.191406 0.421875 22.6875 -0.113281 21.8125 -1.1875 C 20.945312 -2.257812 20.328125 -3.351562 19.953125 -4.46875 C 19.585938 -5.582031 19.289062 -6.554688 19.0625 -7.390625 C 18.414062 -9.671875 17.894531 -11.15625 17.5 -11.84375 C 16.769531 -13.175781 15.785156 -13.84375 14.546875 -13.84375 L 9.875 -13.84375 L 9.875 -5.71875 C 9.875 -4.988281 9.90625 -4.40625 9.96875 -3.96875 C 10.039062 -3.53125 10.289062 -3.144531 10.71875 -2.8125 C 11.15625 -2.488281 12.476562 -2.328125 14.6875 -2.328125 L 14.6875 0 L 1.546875 0 L 1.546875 -2.328125 C 3.035156 -2.328125 3.960938 -2.457031 4.328125 -2.71875 C 4.703125 -2.988281 4.921875 -3.269531 4.984375 -3.5625 C 5.054688 -3.863281 5.09375 -4.226562 5.09375 -4.65625 L 5.09375 -27.203125 C 5.09375 -28.117188 4.9375 -28.691406 4.625 -28.921875 C 4.0625 -29.316406 3.03125 -29.515625 1.53125 -29.515625 L 1.53125 -31.84375 L 14.5625 -31.84375 C 21.53125 -31.84375 25.40625 -29.691406 26.1875 -25.390625 C 26.3125 -24.679688 26.375 -23.851562 26.375 -22.90625 C 26.375 -20.875 25.734375 -19.140625 24.453125 -17.703125 C 23.171875 -16.265625 21.425781 -15.226562 19.21875 -14.59375 C 21.125 -14.007812 22.546875 -12.476562 23.484375 -10 C 23.796875 -9.195312 24.132812 -8.15625 24.5 -6.875 C 24.863281 -5.601562 25.160156 -4.726562 25.390625 -4.25 C 25.890625 -3.175781 26.53125 -2.640625 27.3125 -2.640625 Z M 14.609375 -15.96875 C 17.023438 -15.96875 18.734375 -16.550781 19.734375 -17.71875 C 20.742188 -18.882812 21.25 -20.566406 21.25 -22.765625 C 21.25 -24.972656 20.660156 -26.648438 19.484375 -27.796875 C 18.316406 -28.941406 16.257812 -29.515625 13.3125 -29.515625 L 9.875 -29.515625 L 9.875 -15.96875 Z M 14.609375 -15.96875 "/></g></g></g><g fill="#ffd839" fill-opacity="1"><g transform="translate(17.083124, 146.585289)"><g><path d="M 16.9375 -2.328125 C 21.394531 -2.328125 24.210938 -4.382812 25.390625 -8.5 L 28.453125 -8.5 C 28.453125 -7.394531 28.15625 -6.304688 27.5625 -5.234375 C 26.96875 -4.160156 26.128906 -3.207031 25.046875 -2.375 C 22.671875 -0.507812 19.613281 0.421875 15.875 0.421875 C 12.144531 0.421875 8.945312 -0.820312 6.28125 -3.3125 C 3.195312 -6.1875 1.65625 -10.390625 1.65625 -15.921875 C 1.65625 -20.335938 2.84375 -24.0625 5.21875 -27.09375 C 6.90625 -29.257812 9.148438 -30.765625 11.953125 -31.609375 C 13.398438 -32.054688 14.984375 -32.28125 16.703125 -32.28125 C 20.117188 -32.28125 22.921875 -31.492188 25.109375 -29.921875 C 27.304688 -28.359375 28.40625 -26.394531 28.40625 -24.03125 C 28.40625 -22.257812 27.710938 -21.070312 26.328125 -20.46875 C 25.921875 -20.28125 25.472656 -20.1875 24.984375 -20.1875 C 23.503906 -20.1875 22.507812 -20.816406 22 -22.078125 C 21.84375 -22.472656 21.765625 -22.941406 21.765625 -23.484375 C 21.765625 -24.035156 21.921875 -24.578125 22.234375 -25.109375 C 22.546875 -25.640625 22.957031 -26.046875 23.46875 -26.328125 C 22.320312 -28.523438 20.265625 -29.625 17.296875 -29.625 C 14.335938 -29.625 11.929688 -28.5 10.078125 -26.25 C 8.222656 -24.007812 7.296875 -20.640625 7.296875 -16.140625 C 7.296875 -11.648438 8.238281 -8.222656 10.125 -5.859375 C 12.007812 -3.503906 14.28125 -2.328125 16.9375 -2.328125 Z M 16.9375 -2.328125 "/></g></g></g><g fill="#ffd839" fill-opacity="1"><g transform="translate(48.731263, 146.585289)"><g><path d="M 27.3125 -2.640625 C 28.414062 -2.640625 28.96875 -3.910156 28.96875 -6.453125 L 31 -6.453125 C 31.15625 -5.941406 31.234375 -5.492188 31.234375 -5.109375 C 31.234375 -4.734375 31.222656 -4.320312 31.203125 -3.875 C 31.191406 -3.425781 31.023438 -2.84375 30.703125 -2.125 C 29.921875 -0.425781 28.460938 0.421875 26.328125 0.421875 C 24.191406 0.421875 22.6875 -0.113281 21.8125 -1.1875 C 20.945312 -2.257812 20.328125 -3.351562 19.953125 -4.46875 C 19.585938 -5.582031 19.289062 -6.554688 19.0625 -7.390625 C 18.414062 -9.671875 17.894531 -11.15625 17.5 -11.84375 C 16.769531 -13.175781 15.785156 -13.84375 14.546875 -13.84375 L 9.875 -13.84375 L 9.875 -5.71875 C 9.875 -4.988281 9.90625 -4.40625 9.96875 -3.96875 C 10.039062 -3.53125 10.289062 -3.144531 10.71875 -2.8125 C 11.15625 -2.488281 12.476562 -2.328125 14.6875 -2.328125 L 14.6875 0 L 1.546875 0 L 1.546875 -2.328125 C 3.035156 -2.328125 3.960938 -2.457031 4.328125 -2.71875 C 4.703125 -2.988281 4.921875 -3.269531 4.984375 -3.5625 C 5.054688 -3.863281 5.09375 -4.226562 5.09375 -4.65625 L 5.09375 -27.203125 C 5.09375 -28.117188 4.9375 -28.691406 4.625 -28.921875 C 4.0625 -29.316406 3.03125 -29.515625 1.53125 -29.515625 L 1.53125 -31.84375 L 14.5625 -31.84375 C 21.53125 -31.84375 25.40625 -29.691406 26.1875 -25.390625 C 26.3125 -24.679688 26.375 -23.851562 26.375 -22.90625 C 26.375 -20.875 25.734375 -19.140625 24.453125 -17.703125 C 23.171875 -16.265625 21.425781 -15.226562 19.21875 -14.59375 C 21.125 -14.007812 22.546875 -12.476562 23.484375 -10 C 23.796875 -9.195312 24.132812 -8.15625 24.5 -6.875 C 24.863281 -5.601562 25.160156 -4.726562 25.390625 -4.25 C 25.890625 -3.175781 26.53125 -2.640625 27.3125 -2.640625 Z M 14.609375 -15.96875 C 17.023438 -15.96875 18.734375 -16.550781 19.734375 -17.71875 C 20.742188 -18.882812 21.25 -20.566406 21.25 -22.765625 C 21.25 -24.972656 20.660156 -26.648438 19.484375 -27.796875 C 18.316406 -28.941406 16.257812 -29.515625 13.3125 -29.515625 L 9.875 -29.515625 L 9.875 -15.96875 Z M 14.609375 -15.96875 "/></g></g></g><g fill="#a6a6a6" fill-opacity="0.302"><g transform="translate(78.861663, 144.62866)"><g><path d="M 1.5 -2.328125 C 2.875 -2.328125 3.757812 -2.453125 4.15625 -2.703125 C 4.550781 -2.960938 4.804688 -3.238281 4.921875 -3.53125 C 5.035156 -3.820312 5.09375 -4.179688 5.09375 -4.609375 L 5.09375 -27.203125 C 5.09375 -28.078125 4.832031 -28.679688 4.3125 -29.015625 C 3.789062 -29.347656 2.863281 -29.515625 1.53125 -29.515625 L 1.53125 -31.84375 L 24.625 -31.84375 L 25.453125 -24.140625 L 22.375 -24.125 L 21.8125 -26.515625 C 21.519531 -27.660156 21.226562 -28.382812 20.9375 -28.6875 C 20.414062 -29.207031 19.53125 -29.46875 18.28125 -29.46875 L 9.875 -29.46875 L 9.875 -17.109375 L 14 -17.109375 C 15.59375 -17.109375 16.566406 -17.210938 16.921875 -17.421875 C 17.285156 -17.640625 17.535156 -17.945312 17.671875 -18.34375 C 17.804688 -18.738281 17.875 -19.3125 17.875 -20.0625 L 20.640625 -20.0625 L 20.640625 -11.84375 L 17.875 -11.84375 C 17.875 -13.164062 17.613281 -13.984375 17.09375 -14.296875 C 16.582031 -14.617188 15.550781 -14.78125 14 -14.78125 L 9.875 -14.78125 L 9.875 -2.328125 L 18.890625 -2.328125 C 20.535156 -2.328125 21.628906 -2.878906 22.171875 -3.984375 C 22.335938 -4.328125 22.503906 -4.679688 22.671875 -5.046875 L 23.625 -7.671875 L 26.703125 -7.671875 L 25.875 0 L 1.5 0 Z M 1.5 -2.328125 "/></g></g></g><g fill="#a6a6a6" fill-opacity="0.302"><g transform="translate(107.240981, 144.62866)"><g><path d="M -0.234375 -2.328125 C 0.941406 -2.328125 1.828125 -2.507812 2.421875 -2.875 C 3.023438 -3.238281 3.492188 -3.832031 3.828125 -4.65625 L 15.28125 -31.84375 L 18.921875 -31.84375 L 29.40625 -4.65625 C 29.789062 -3.75 30.210938 -3.132812 30.671875 -2.8125 C 31.140625 -2.488281 32.054688 -2.328125 33.421875 -2.328125 L 33.421875 0 L 20.3125 0 L 20.3125 -2.328125 C 22.1875 -2.328125 23.296875 -2.453125 23.640625 -2.703125 C 23.984375 -2.960938 24.144531 -3.238281 24.125 -3.53125 C 24.101562 -3.832031 24.007812 -4.207031 23.84375 -4.65625 L 21.9375 -9.984375 L 9.59375 -9.984375 L 7.40625 -4.65625 C 7.082031 -3.800781 7.179688 -3.195312 7.703125 -2.84375 C 8.234375 -2.5 9.457031 -2.328125 11.375 -2.328125 L 11.375 0 L -0.234375 0 Z M 21.109375 -12.3125 L 16.171875 -26.078125 L 10.546875 -12.3125 Z M 21.109375 -12.3125 "/></g></g></g><g fill="#a6a6a6" fill-opacity="0.502"><g transform="translate(79.449494, 145.606979)"><g><path d="M 1.5 -2.328125 C 2.875 -2.328125 3.757812 -2.453125 4.15625 -2.703125 C 4.550781 -2.960938 4.804688 -3.238281 4.921875 -3.53125 C 5.035156 -3.820312 5.09375 -4.179688 5.09375 -4.609375 L 5.09375 -27.203125 C 5.09375 -28.078125 4.832031 -28.679688 4.3125 -29.015625 C 3.789062 -29.347656 2.863281 -29.515625 1.53125 -29.515625 L 1.53125 -31.84375 L 24.625 -31.84375 L 25.453125 -24.140625 L 22.375 -24.125 L 21.8125 -26.515625 C 21.519531 -27.660156 21.226562 -28.382812 20.9375 -28.6875 C 20.414062 -29.207031 19.53125 -29.46875 18.28125 -29.46875 L 9.875 -29.46875 L 9.875 -17.109375 L 14 -17.109375 C 15.59375 -17.109375 16.566406 -17.210938 16.921875 -17.421875 C 17.285156 -17.640625 17.535156 -17.945312 17.671875 -18.34375 C 17.804688 -18.738281 17.875 -19.3125 17.875 -20.0625 L 20.640625 -20.0625 L 20.640625 -11.84375 L 17.875 -11.84375 C 17.875 -13.164062 17.613281 -13.984375 17.09375 -14.296875 C 16.582031 -14.617188 15.550781 -14.78125 14 -14.78125 L 9.875 -14.78125 L 9.875 -2.328125 L 18.890625 -2.328125 C 20.535156 -2.328125 21.628906 -2.878906 22.171875 -3.984375 C 22.335938 -4.328125 22.503906 -4.679688 22.671875 -5.046875 L 23.625 -7.671875 L 26.703125 -7.671875 L 25.875 0 L 1.5 0 Z M 1.5 -2.328125 "/></g></g></g><g fill="#a6a6a6" fill-opacity="0.502"><g transform="translate(107.828811, 145.606979)"><g><path d="M -0.234375 -2.328125 C 0.941406 -2.328125 1.828125 -2.507812 2.421875 -2.875 C 3.023438 -3.238281 3.492188 -3.832031 3.828125 -4.65625 L 15.28125 -31.84375 L 18.921875 -31.84375 L 29.40625 -4.65625 C 29.789062 -3.75 30.210938 -3.132812 30.671875 -2.8125 C 31.140625 -2.488281 32.054688 -2.328125 33.421875 -2.328125 L 33.421875 0 L 20.3125 0 L 20.3125 -2.328125 C 22.1875 -2.328125 23.296875 -2.453125 23.640625 -2.703125 C 23.984375 -2.960938 24.144531 -3.238281 24.125 -3.53125 C 24.101562 -3.832031 24.007812 -4.207031 23.84375 -4.65625 L 21.9375 -9.984375 L 9.59375 -9.984375 L 7.40625 -4.65625 C 7.082031 -3.800781 7.179688 -3.195312 7.703125 -2.84375 C 8.234375 -2.5 9.457031 -2.328125 11.375 -2.328125 L 11.375 0 L -0.234375 0 Z M 21.109375 -12.3125 L 16.171875 -26.078125 L 10.546875 -12.3125 Z M 21.109375 -12.3125 "/></g></g></g><g fill="#fea82f" fill-opacity="1"><g transform="translate(80.037324, 146.585289)"><g><path d="M 1.5 -2.328125 C 2.875 -2.328125 3.757812 -2.453125 4.15625 -2.703125 C 4.550781 -2.960938 4.804688 -3.238281 4.921875 -3.53125 C 5.035156 -3.820312 5.09375 -4.179688 5.09375 -4.609375 L 5.09375 -27.203125 C 5.09375 -28.078125 4.832031 -28.679688 4.3125 -29.015625 C 3.789062 -29.347656 2.863281 -29.515625 1.53125 -29.515625 L 1.53125 -31.84375 L 24.625 -31.84375 L 25.453125 -24.140625 L 22.375 -24.125 L 21.8125 -26.515625 C 21.519531 -27.660156 21.226562 -28.382812 20.9375 -28.6875 C 20.414062 -29.207031 19.53125 -29.46875 18.28125 -29.46875 L 9.875 -29.46875 L 9.875 -17.109375 L 14 -17.109375 C 15.59375 -17.109375 16.566406 -17.210938 16.921875 -17.421875 C 17.285156 -17.640625 17.535156 -17.945312 17.671875 -18.34375 C 17.804688 -18.738281 17.875 -19.3125 17.875 -20.0625 L 20.640625 -20.0625 L 20.640625 -11.84375 L 17.875 -11.84375 C 17.875 -13.164062 17.613281 -13.984375 17.09375 -14.296875 C 16.582031 -14.617188 15.550781 -14.78125 14 -14.78125 L 9.875 -14.78125 L 9.875 -2.328125 L 18.890625 -2.328125 C 20.535156 -2.328125 21.628906 -2.878906 22.171875 -3.984375 C 22.335938 -4.328125 22.503906 -4.679688 22.671875 -5.046875 L 23.625 -7.671875 L 26.703125 -7.671875 L 25.875 0 L 1.5 0 Z M 1.5 -2.328125 "/></g></g></g><g fill="#fea82f" fill-opacity="1"><g transform="translate(108.416642, 146.585289)"><g><path d="M -0.234375 -2.328125 C 0.941406 -2.328125 1.828125 -2.507812 2.421875 -2.875 C 3.023438 -3.238281 3.492188 -3.832031 3.828125 -4.65625 L 15.28125 -31.84375 L 18.921875 -31.84375 L 29.40625 -4.65625 C 29.789062 -3.75 30.210938 -3.132812 30.671875 -2.8125 C 31.140625 -2.488281 32.054688 -2.328125 33.421875 -2.328125 L 33.421875 0 L 20.3125 0 L 20.3125 -2.328125 C 22.1875 -2.328125 23.296875 -2.453125 23.640625 -2.703125 C 23.984375 -2.960938 24.144531 -3.238281 24.125 -3.53125 C 24.101562 -3.832031 24.007812 -4.207031 23.84375 -4.65625 L 21.9375 -9.984375 L 9.59375 -9.984375 L 7.40625 -4.65625 C 7.082031 -3.800781 7.179688 -3.195312 7.703125 -2.84375 C 8.234375 -2.5 9.457031 -2.328125 11.375 -2.328125 L 11.375 0 L -0.234375 0 Z M 21.109375 -12.3125 L 16.171875 -26.078125 L 10.546875 -12.3125 Z M 21.109375 -12.3125 "/></g></g></g><g fill="#a6a6a6" fill-opacity="0.302"><g transform="translate(140.79462, 144.62866)"><g><path d="M 7.796875 -2.328125 C 9.390625 -2.328125 10.445312 -2.457031 10.96875 -2.71875 C 11.5 -2.988281 11.84375 -3.269531 12 -3.5625 C 12.15625 -3.863281 12.234375 -4.226562 12.234375 -4.65625 L 12.234375 -29.390625 L 7.875 -29.390625 C 5.539062 -29.390625 4.203125 -28.148438 3.859375 -25.671875 L 3.25 -21.359375 L 0.171875 -21.375 L 1.109375 -31.84375 L 28.140625 -31.84375 L 29.0625 -21.375 L 25.984375 -21.359375 L 25.375 -25.671875 C 25.21875 -26.816406 24.910156 -27.628906 24.453125 -28.109375 C 23.640625 -28.960938 22.609375 -29.390625 21.359375 -29.390625 L 17 -29.390625 L 17 -4.65625 C 17 -3.757812 17.289062 -3.144531 17.875 -2.8125 C 18.46875 -2.488281 19.65625 -2.328125 21.4375 -2.328125 L 21.4375 0 L 7.796875 0 Z M 7.796875 -2.328125 "/></g></g></g><g fill="#a6a6a6" fill-opacity="0.302"><g transform="translate(170.022982, 144.62866)"><g><path d="M 1.71875 -2.328125 C 3.0625 -2.328125 3.9375 -2.457031 4.34375 -2.71875 C 4.757812 -2.988281 5.023438 -3.269531 5.140625 -3.5625 C 5.253906 -3.863281 5.3125 -4.226562 5.3125 -4.65625 L 5.28125 -27.203125 C 5.28125 -28.117188 5.117188 -28.691406 4.796875 -28.921875 C 4.242188 -29.316406 3.21875 -29.515625 1.71875 -29.515625 L 1.71875 -31.84375 L 13.65625 -31.84375 L 13.65625 -29.515625 C 12.3125 -29.515625 11.429688 -29.382812 11.015625 -29.125 C 10.609375 -28.863281 10.347656 -28.582031 10.234375 -28.28125 C 10.117188 -27.988281 10.0625 -27.628906 10.0625 -27.203125 L 10.078125 -4.65625 C 10.078125 -3.726562 10.242188 -3.15625 10.578125 -2.9375 C 11.128906 -2.53125 12.15625 -2.328125 13.65625 -2.328125 L 13.65625 0 L 1.71875 0 Z M 1.71875 -2.328125 "/></g></g></g><g fill="#a6a6a6" fill-opacity="0.502"><g transform="translate(141.38245, 145.606979)"><g><path d="M 7.796875 -2.328125 C 9.390625 -2.328125 10.445312 -2.457031 10.96875 -2.71875 C 11.5 -2.988281 11.84375 -3.269531 12 -3.5625 C 12.15625 -3.863281 12.234375 -4.226562 12.234375 -4.65625 L 12.234375 -29.390625 L 7.875 -29.390625 C 5.539062 -29.390625 4.203125 -28.148438 3.859375 -25.671875 L 3.25 -21.359375 L 0.171875 -21.375 L 1.109375 -31.84375 L 28.140625 -31.84375 L 29.0625 -21.375 L 25.984375 -21.359375 L 25.375 -25.671875 C 25.21875 -26.816406 24.910156 -27.628906 24.453125 -28.109375 C 23.640625 -28.960938 22.609375 -29.390625 21.359375 -29.390625 L 17 -29.390625 L 17 -4.65625 C 17 -3.757812 17.289062 -3.144531 17.875 -2.8125 C 18.46875 -2.488281 19.65625 -2.328125 21.4375 -2.328125 L 21.4375 0 L 7.796875 0 Z M 7.796875 -2.328125 "/></g></g></g><g fill="#a6a6a6" fill-opacity="0.502"><g transform="translate(170.610812, 145.606979)"><g><path d="M 1.71875 -2.328125 C 3.0625 -2.328125 3.9375 -2.457031 4.34375 -2.71875 C 4.757812 -2.988281 5.023438 -3.269531 5.140625 -3.5625 C 5.253906 -3.863281 5.3125 -4.226562 5.3125 -4.65625 L 5.28125 -27.203125 C 5.28125 -28.117188 5.117188 -28.691406 4.796875 -28.921875 C 4.242188 -29.316406 3.21875 -29.515625 1.71875 -29.515625 L 1.71875 -31.84375 L 13.65625 -31.84375 L 13.65625 -29.515625 C 12.3125 -29.515625 11.429688 -29.382812 11.015625 -29.125 C 10.609375 -28.863281 10.347656 -28.582031 10.234375 -28.28125 C 10.117188 -27.988281 10.0625 -27.628906 10.0625 -27.203125 L 10.078125 -4.65625 C 10.078125 -3.726562 10.242188 -3.15625 10.578125 -2.9375 C 11.128906 -2.53125 12.15625 -2.328125 13.65625 -2.328125 L 13.65625 0 L 1.71875 0 Z M 1.71875 -2.328125 "/></g></g></g><g fill="#ff79cd" fill-opacity="1"><g transform="translate(141.970281, 146.585289)"><g><path d="M 7.796875 -2.328125 C 9.390625 -2.328125 10.445312 -2.457031 10.96875 -2.71875 C 11.5 -2.988281 11.84375 -3.269531 12 -3.5625 C 12.15625 -3.863281 12.234375 -4.226562 12.234375 -4.65625 L 12.234375 -29.390625 L 7.875 -29.390625 C 5.539062 -29.390625 4.203125 -28.148438 3.859375 -25.671875 L 3.25 -21.359375 L 0.171875 -21.375 L 1.109375 -31.84375 L 28.140625 -31.84375 L 29.0625 -21.375 L 25.984375 -21.359375 L 25.375 -25.671875 C 25.21875 -26.816406 24.910156 -27.628906 24.453125 -28.109375 C 23.640625 -28.960938 22.609375 -29.390625 21.359375 -29.390625 L 17 -29.390625 L 17 -4.65625 C 17 -3.757812 17.289062 -3.144531 17.875 -2.8125 C 18.46875 -2.488281 19.65625 -2.328125 21.4375 -2.328125 L 21.4375 0 L 7.796875 0 Z M 7.796875 -2.328125 "/></g></g></g><g fill="#ff79cd" fill-opacity="1"><g transform="translate(171.198643, 146.585289)"><g><path d="M 1.71875 -2.328125 C 3.0625 -2.328125 3.9375 -2.457031 4.34375 -2.71875 C 4.757812 -2.988281 5.023438 -3.269531 5.140625 -3.5625 C 5.253906 -3.863281 5.3125 -4.226562 5.3125 -4.65625 L 5.28125 -27.203125 C 5.28125 -28.117188 5.117188 -28.691406 4.796875 -28.921875 C 4.242188 -29.316406 3.21875 -29.515625 1.71875 -29.515625 L 1.71875 -31.84375 L 13.65625 -31.84375 L 13.65625 -29.515625 C 12.3125 -29.515625 11.429688 -29.382812 11.015625 -29.125 C 10.609375 -28.863281 10.347656 -28.582031 10.234375 -28.28125 C 10.117188 -27.988281 10.0625 -27.628906 10.0625 -27.203125 L 10.078125 -4.65625 C 10.078125 -3.726562 10.242188 -3.15625 10.578125 -2.9375 C 11.128906 -2.53125 12.15625 -2.328125 13.65625 -2.328125 L 13.65625 0 L 1.71875 0 Z M 1.71875 -2.328125 "/></g></g></g><g fill="#a6a6a6" fill-opacity="0.302"><g transform="translate(185.343681, 144.62866)"><g><path d="M 3.0625 -27.203125 C 2.675781 -28.109375 2.25 -28.71875 1.78125 -29.03125 C 1.3125 -29.351562 0.398438 -29.515625 -0.953125 -29.515625 L -0.953125 -31.84375 L 12.375 -31.84375 L 12.375 -29.515625 C 10.488281 -29.515625 9.375 -29.382812 9.03125 -29.125 C 8.695312 -28.863281 8.539062 -28.585938 8.5625 -28.296875 C 8.582031 -28.003906 8.679688 -27.640625 8.859375 -27.203125 L 16.8125 -6.25 L 24.84375 -27.203125 C 25.164062 -28.046875 25.066406 -28.640625 24.546875 -28.984375 C 24.023438 -29.335938 22.800781 -29.515625 20.875 -29.515625 L 20.875 -31.84375 L 32.484375 -31.84375 L 32.484375 -29.515625 C 31.304688 -29.515625 30.421875 -29.335938 29.828125 -28.984375 C 29.234375 -28.628906 28.769531 -28.035156 28.4375 -27.203125 L 17.390625 0 L 14.609375 0 Z M 3.0625 -27.203125 "/></g></g></g><g fill="#a6a6a6" fill-opacity="0.302"><g transform="translate(216.864463, 144.62866)"><g><path d="M 1.5 -2.328125 C 2.875 -2.328125 3.757812 -2.453125 4.15625 -2.703125 C 4.550781 -2.960938 4.804688 -3.238281 4.921875 -3.53125 C 5.035156 -3.820312 5.09375 -4.179688 5.09375 -4.609375 L 5.09375 -27.203125 C 5.09375 -28.078125 4.832031 -28.679688 4.3125 -29.015625 C 3.789062 -29.347656 2.863281 -29.515625 1.53125 -29.515625 L 1.53125 -31.84375 L 24.625 -31.84375 L 25.453125 -24.140625 L 22.375 -24.125 L 21.8125 -26.515625 C 21.519531 -27.660156 21.226562 -28.382812 20.9375 -28.6875 C 20.414062 -29.207031 19.53125 -29.46875 18.28125 -29.46875 L 9.875 -29.46875 L 9.875 -17.109375 L 14 -17.109375 C 15.59375 -17.109375 16.566406 -17.210938 16.921875 -17.421875 C 17.285156 -17.640625 17.535156 -17.945312 17.671875 -18.34375 C 17.804688 -18.738281 17.875 -19.3125 17.875 -20.0625 L 20.640625 -20.0625 L 20.640625 -11.84375 L 17.875 -11.84375 C 17.875 -13.164062 17.613281 -13.984375 17.09375 -14.296875 C 16.582031 -14.617188 15.550781 -14.78125 14 -14.78125 L 9.875 -14.78125 L 9.875 -2.328125 L 18.890625 -2.328125 C 20.535156 -2.328125 21.628906 -2.878906 22.171875 -3.984375 C 22.335938 -4.328125 22.503906 -4.679688 22.671875 -5.046875 L 23.625 -7.671875 L 26.703125 -7.671875 L 25.875 0 L 1.5 0 Z M 1.5 -2.328125 "/></g></g></g><g fill="#a6a6a6" fill-opacity="0.502"><g transform="translate(185.931511, 145.606979)"><g><path d="M 3.0625 -27.203125 C 2.675781 -28.109375 2.25 -28.71875 1.78125 -29.03125 C 1.3125 -29.351562 0.398438 -29.515625 -0.953125 -29.515625 L -0.953125 -31.84375 L 12.375 -31.84375 L 12.375 -29.515625 C 10.488281 -29.515625 9.375 -29.382812 9.03125 -29.125 C 8.695312 -28.863281 8.539062 -28.585938 8.5625 -28.296875 C 8.582031 -28.003906 8.679688 -27.640625 8.859375 -27.203125 L 16.8125 -6.25 L 24.84375 -27.203125 C 25.164062 -28.046875 25.066406 -28.640625 24.546875 -28.984375 C 24.023438 -29.335938 22.800781 -29.515625 20.875 -29.515625 L 20.875 -31.84375 L 32.484375 -31.84375 L 32.484375 -29.515625 C 31.304688 -29.515625 30.421875 -29.335938 29.828125 -28.984375 C 29.234375 -28.628906 28.769531 -28.035156 28.4375 -27.203125 L 17.390625 0 L 14.609375 0 Z M 3.0625 -27.203125 "/></g></g></g><g fill="#a6a6a6" fill-opacity="0.502"><g transform="translate(217.452294, 145.606979)"><g><path d="M 1.5 -2.328125 C 2.875 -2.328125 3.757812 -2.453125 4.15625 -2.703125 C 4.550781 -2.960938 4.804688 -3.238281 4.921875 -3.53125 C 5.035156 -3.820312 5.09375 -4.179688 5.09375 -4.609375 L 5.09375 -27.203125 C 5.09375 -28.078125 4.832031 -28.679688 4.3125 -29.015625 C 3.789062 -29.347656 2.863281 -29.515625 1.53125 -29.515625 L 1.53125 -31.84375 L 24.625 -31.84375 L 25.453125 -24.140625 L 22.375 -24.125 L 21.8125 -26.515625 C 21.519531 -27.660156 21.226562 -28.382812 20.9375 -28.6875 C 20.414062 -29.207031 19.53125 -29.46875 18.28125 -29.46875 L 9.875 -29.46875 L 9.875 -17.109375 L 14 -17.109375 C 15.59375 -17.109375 16.566406 -17.210938 16.921875 -17.421875 C 17.285156 -17.640625 17.535156 -17.945312 17.671875 -18.34375 C 17.804688 -18.738281 17.875 -19.3125 17.875 -20.0625 L 20.640625 -20.0625 L 20.640625 -11.84375 L 17.875 -11.84375 C 17.875 -13.164062 17.613281 -13.984375 17.09375 -14.296875 C 16.582031 -14.617188 15.550781 -14.78125 14 -14.78125 L 9.875 -14.78125 L 9.875 -2.328125 L 18.890625 -2.328125 C 20.535156 -2.328125 21.628906 -2.878906 22.171875 -3.984375 C 22.335938 -4.328125 22.503906 -4.679688 22.671875 -5.046875 L 23.625 -7.671875 L 26.703125 -7.671875 L 25.875 0 L 1.5 0 Z M 1.5 -2.328125 "/></g></g></g><g fill="#5ce1e6" fill-opacity="1"><g transform="translate(186.519342, 146.585289)"><g><path d="M 3.0625 -27.203125 C 2.675781 -28.109375 2.25 -28.71875 1.78125 -29.03125 C 1.3125 -29.351562 0.398438 -29.515625 -0.953125 -29.515625 L -0.953125 -31.84375 L 12.375 -31.84375 L 12.375 -29.515625 C 10.488281 -29.515625 9.375 -29.382812 9.03125 -29.125 C 8.695312 -28.863281 8.539062 -28.585938 8.5625 -28.296875 C 8.582031 -28.003906 8.679688 -27.640625 8.859375 -27.203125 L 16.8125 -6.25 L 24.84375 -27.203125 C 25.164062 -28.046875 25.066406 -28.640625 24.546875 -28.984375 C 24.023438 -29.335938 22.800781 -29.515625 20.875 -29.515625 L 20.875 -31.84375 L 32.484375 -31.84375 L 32.484375 -29.515625 C 31.304688 -29.515625 30.421875 -29.335938 29.828125 -28.984375 C 29.234375 -28.628906 28.769531 -28.035156 28.4375 -27.203125 L 17.390625 0 L 14.609375 0 Z M 3.0625 -27.203125 "/></g></g></g><g fill="#5ce1e6" fill-opacity="1"><g transform="translate(218.040124, 146.585289)"><g><path d="M 1.5 -2.328125 C 2.875 -2.328125 3.757812 -2.453125 4.15625 -2.703125 C 4.550781 -2.960938 4.804688 -3.238281 4.921875 -3.53125 C 5.035156 -3.820312 5.09375 -4.179688 5.09375 -4.609375 L 5.09375 -27.203125 C 5.09375 -28.078125 4.832031 -28.679688 4.3125 -29.015625 C 3.789062 -29.347656 2.863281 -29.515625 1.53125 -29.515625 L 1.53125 -31.84375 L 24.625 -31.84375 L 25.453125 -24.140625 L 22.375 -24.125 L 21.8125 -26.515625 C 21.519531 -27.660156 21.226562 -28.382812 20.9375 -28.6875 C 20.414062 -29.207031 19.53125 -29.46875 18.28125 -29.46875 L 9.875 -29.46875 L 9.875 -17.109375 L 14 -17.109375 C 15.59375 -17.109375 16.566406 -17.210938 16.921875 -17.421875 C 17.285156 -17.640625 17.535156 -17.945312 17.671875 -18.34375 C 17.804688 -18.738281 17.875 -19.3125 17.875 -20.0625 L 20.640625 -20.0625 L 20.640625 -11.84375 L 17.875 -11.84375 C 17.875 -13.164062 17.613281 -13.984375 17.09375 -14.296875 C 16.582031 -14.617188 15.550781 -14.78125 14 -14.78125 L 9.875 -14.78125 L 9.875 -2.328125 L 18.890625 -2.328125 C 20.535156 -2.328125 21.628906 -2.878906 22.171875 -3.984375 C 22.335938 -4.328125 22.503906 -4.679688 22.671875 -5.046875 L 23.625 -7.671875 L 26.703125 -7.671875 L 25.875 0 L 1.5 0 Z M 1.5 -2.328125 "/></g></g></g><g fill="#a6a6a6" fill-opacity="0.302"><g transform="translate(211.898522, 183.257459)"><g><path d="M 1.4375 -2.1875 C 2.6875 -2.1875 3.503906 -2.304688 3.890625 -2.546875 C 4.273438 -2.796875 4.519531 -3.054688 4.625 -3.328125 C 4.726562 -3.609375 4.78125 -3.945312 4.78125 -4.34375 L 4.765625 -25.4375 C 4.765625 -26.300781 4.617188 -26.835938 4.328125 -27.046875 C 3.796875 -27.421875 2.832031 -27.609375 1.4375 -27.609375 L 1.4375 -29.78125 L 12.59375 -29.78125 L 12.59375 -27.609375 C 11.332031 -27.609375 10.507812 -27.484375 10.125 -27.234375 C 9.738281 -26.992188 9.492188 -26.734375 9.390625 -26.453125 C 9.285156 -26.171875 9.234375 -25.832031 9.234375 -25.4375 L 9.234375 -16.5625 L 24.03125 -16.5625 L 24.03125 -25.4375 C 24.03125 -26.300781 23.882812 -26.835938 23.59375 -27.046875 C 23.0625 -27.421875 22.09375 -27.609375 20.6875 -27.609375 L 20.6875 -29.78125 L 31.859375 -29.78125 L 31.859375 -27.609375 C 30.597656 -27.609375 29.773438 -27.484375 29.390625 -27.234375 C 29.003906 -26.992188 28.757812 -26.734375 28.65625 -26.453125 C 28.550781 -26.171875 28.5 -25.832031 28.5 -25.4375 L 28.515625 -4.34375 C 28.515625 -3.488281 28.660156 -2.953125 28.953125 -2.734375 C 29.484375 -2.367188 30.453125 -2.1875 31.859375 -2.1875 L 31.859375 0 L 20.6875 0 L 20.6875 -2.1875 C 21.945312 -2.1875 22.769531 -2.304688 23.15625 -2.546875 C 23.539062 -2.796875 23.785156 -3.054688 23.890625 -3.328125 C 23.992188 -3.609375 24.046875 -3.945312 24.046875 -4.34375 L 24.03125 -13.984375 L 9.234375 -13.984375 L 9.25 -4.34375 C 9.25 -3.488281 9.394531 -2.953125 9.6875 -2.734375 C 10.21875 -2.367188 11.1875 -2.1875 12.59375 -2.1875 L 12.59375 0 L 1.4375 0 Z M 1.4375 -2.1875 "/></g></g></g><g fill="#a6a6a6" fill-opacity="0.502"><g transform="translate(212.448439, 184.172665)"><g><path d="M 1.4375 -2.1875 C 2.6875 -2.1875 3.503906 -2.304688 3.890625 -2.546875 C 4.273438 -2.796875 4.519531 -3.054688 4.625 -3.328125 C 4.726562 -3.609375 4.78125 -3.945312 4.78125 -4.34375 L 4.765625 -25.4375 C 4.765625 -26.300781 4.617188 -26.835938 4.328125 -27.046875 C 3.796875 -27.421875 2.832031 -27.609375 1.4375 -27.609375 L 1.4375 -29.78125 L 12.59375 -29.78125 L 12.59375 -27.609375 C 11.332031 -27.609375 10.507812 -27.484375 10.125 -27.234375 C 9.738281 -26.992188 9.492188 -26.734375 9.390625 -26.453125 C 9.285156 -26.171875 9.234375 -25.832031 9.234375 -25.4375 L 9.234375 -16.5625 L 24.03125 -16.5625 L 24.03125 -25.4375 C 24.03125 -26.300781 23.882812 -26.835938 23.59375 -27.046875 C 23.0625 -27.421875 22.09375 -27.609375 20.6875 -27.609375 L 20.6875 -29.78125 L 31.859375 -29.78125 L 31.859375 -27.609375 C 30.597656 -27.609375 29.773438 -27.484375 29.390625 -27.234375 C 29.003906 -26.992188 28.757812 -26.734375 28.65625 -26.453125 C 28.550781 -26.171875 28.5 -25.832031 28.5 -25.4375 L 28.515625 -4.34375 C 28.515625 -3.488281 28.660156 -2.953125 28.953125 -2.734375 C 29.484375 -2.367188 30.453125 -2.1875 31.859375 -2.1875 L 31.859375 0 L 20.6875 0 L 20.6875 -2.1875 C 21.945312 -2.1875 22.769531 -2.304688 23.15625 -2.546875 C 23.539062 -2.796875 23.785156 -3.054688 23.890625 -3.328125 C 23.992188 -3.609375 24.046875 -3.945312 24.046875 -4.34375 L 24.03125 -13.984375 L 9.234375 -13.984375 L 9.25 -4.34375 C 9.25 -3.488281 9.394531 -2.953125 9.6875 -2.734375 C 10.21875 -2.367188 11.1875 -2.1875 12.59375 -2.1875 L 12.59375 0 L 1.4375 0 Z M 1.4375 -2.1875 "/></g></g></g><g fill="#5ce1e6" fill-opacity="1"><g transform="translate(212.998341, 185.087855)"><g><path d="M 1.4375 -2.1875 C 2.6875 -2.1875 3.503906 -2.304688 3.890625 -2.546875 C 4.273438 -2.796875 4.519531 -3.054688 4.625 -3.328125 C 4.726562 -3.609375 4.78125 -3.945312 4.78125 -4.34375 L 4.765625 -25.4375 C 4.765625 -26.300781 4.617188 -26.835938 4.328125 -27.046875 C 3.796875 -27.421875 2.832031 -27.609375 1.4375 -27.609375 L 1.4375 -29.78125 L 12.59375 -29.78125 L 12.59375 -27.609375 C 11.332031 -27.609375 10.507812 -27.484375 10.125 -27.234375 C 9.738281 -26.992188 9.492188 -26.734375 9.390625 -26.453125 C 9.285156 -26.171875 9.234375 -25.832031 9.234375 -25.4375 L 9.234375 -16.5625 L 24.03125 -16.5625 L 24.03125 -25.4375 C 24.03125 -26.300781 23.882812 -26.835938 23.59375 -27.046875 C 23.0625 -27.421875 22.09375 -27.609375 20.6875 -27.609375 L 20.6875 -29.78125 L 31.859375 -29.78125 L 31.859375 -27.609375 C 30.597656 -27.609375 29.773438 -27.484375 29.390625 -27.234375 C 29.003906 -26.992188 28.757812 -26.734375 28.65625 -26.453125 C 28.550781 -26.171875 28.5 -25.832031 28.5 -25.4375 L 28.515625 -4.34375 C 28.515625 -3.488281 28.660156 -2.953125 28.953125 -2.734375 C 29.484375 -2.367188 30.453125 -2.1875 31.859375 -2.1875 L 31.859375 0 L 20.6875 0 L 20.6875 -2.1875 C 21.945312 -2.1875 22.769531 -2.304688 23.15625 -2.546875 C 23.539062 -2.796875 23.785156 -3.054688 23.890625 -3.328125 C 23.992188 -3.609375 24.046875 -3.945312 24.046875 -4.34375 L 24.03125 -13.984375 L 9.234375 -13.984375 L 9.25 -4.34375 C 9.25 -3.488281 9.394531 -2.953125 9.6875 -2.734375 C 10.21875 -2.367188 11.1875 -2.1875 12.59375 -2.1875 L 12.59375 0 L 1.4375 0 Z M 1.4375 -2.1875 "/></g></g></g><g fill="#a6a6a6" fill-opacity="0.302"><g transform="translate(245.157131, 183.257459)"><g><path d="M -0.21875 -2.1875 C 0.882812 -2.1875 1.71875 -2.351562 2.28125 -2.6875 C 2.84375 -3.03125 3.273438 -3.582031 3.578125 -4.34375 L 14.296875 -29.78125 L 17.6875 -29.78125 L 27.5 -4.34375 C 27.863281 -3.5 28.265625 -2.925781 28.703125 -2.625 C 29.140625 -2.332031 29.992188 -2.1875 31.265625 -2.1875 L 31.265625 0 L 19 0 L 19 -2.1875 C 20.75 -2.1875 21.785156 -2.304688 22.109375 -2.546875 C 22.429688 -2.785156 22.582031 -3.039062 22.5625 -3.3125 C 22.550781 -3.59375 22.460938 -3.9375 22.296875 -4.34375 L 20.515625 -9.328125 L 8.96875 -9.328125 L 6.9375 -4.34375 C 6.625 -3.550781 6.710938 -2.992188 7.203125 -2.671875 C 7.691406 -2.347656 8.835938 -2.1875 10.640625 -2.1875 L 10.640625 0 L -0.21875 0 Z M 19.734375 -11.515625 L 15.125 -24.390625 L 9.875 -11.515625 Z M 19.734375 -11.515625 "/></g></g><g transform="translate(276.551964, 183.257459)"><g><path d="M 1.328125 -2.21875 C 2.628906 -2.21875 3.46875 -2.34375 3.84375 -2.59375 C 4.226562 -2.851562 4.476562 -3.125 4.59375 -3.40625 C 4.707031 -3.6875 4.765625 -4.023438 4.765625 -4.421875 L 4.765625 -25.359375 C 4.765625 -26.222656 4.609375 -26.765625 4.296875 -26.984375 C 3.765625 -27.367188 2.773438 -27.5625 1.328125 -27.5625 L 1.328125 -29.78125 L 8.1875 -29.78125 L 25.21875 -8.15625 L 25.21875 -25.359375 C 25.21875 -26.234375 25.066406 -26.773438 24.765625 -26.984375 C 24.234375 -27.367188 23.253906 -27.5625 21.828125 -27.5625 L 21.828125 -29.78125 L 31.828125 -29.78125 L 31.828125 -27.5625 C 30.535156 -27.5625 29.695312 -27.4375 29.3125 -27.1875 C 28.925781 -26.9375 28.675781 -26.664062 28.5625 -26.375 C 28.457031 -26.09375 28.40625 -25.753906 28.40625 -25.359375 L 28.40625 0 L 25.953125 0 L 7.9375 -22.859375 L 7.9375 -4.421875 C 7.9375 -3.566406 8.097656 -3.023438 8.421875 -2.796875 C 8.953125 -2.410156 9.945312 -2.21875 11.40625 -2.21875 L 11.40625 0 L 1.328125 0 Z M 1.328125 -2.21875 "/></g></g></g><g fill="#a6a6a6" fill-opacity="0.502"><g transform="translate(245.707047, 184.172665)"><g><path d="M -0.21875 -2.1875 C 0.882812 -2.1875 1.71875 -2.351562 2.28125 -2.6875 C 2.84375 -3.03125 3.273438 -3.582031 3.578125 -4.34375 L 14.296875 -29.78125 L 17.6875 -29.78125 L 27.5 -4.34375 C 27.863281 -3.5 28.265625 -2.925781 28.703125 -2.625 C 29.140625 -2.332031 29.992188 -2.1875 31.265625 -2.1875 L 31.265625 0 L 19 0 L 19 -2.1875 C 20.75 -2.1875 21.785156 -2.304688 22.109375 -2.546875 C 22.429688 -2.785156 22.582031 -3.039062 22.5625 -3.3125 C 22.550781 -3.59375 22.460938 -3.9375 22.296875 -4.34375 L 20.515625 -9.328125 L 8.96875 -9.328125 L 6.9375 -4.34375 C 6.625 -3.550781 6.710938 -2.992188 7.203125 -2.671875 C 7.691406 -2.347656 8.835938 -2.1875 10.640625 -2.1875 L 10.640625 0 L -0.21875 0 Z M 19.734375 -11.515625 L 15.125 -24.390625 L 9.875 -11.515625 Z M 19.734375 -11.515625 "/></g></g><g transform="translate(277.101881, 184.172665)"><g><path d="M 1.328125 -2.21875 C 2.628906 -2.21875 3.46875 -2.34375 3.84375 -2.59375 C 4.226562 -2.851562 4.476562 -3.125 4.59375 -3.40625 C 4.707031 -3.6875 4.765625 -4.023438 4.765625 -4.421875 L 4.765625 -25.359375 C 4.765625 -26.222656 4.609375 -26.765625 4.296875 -26.984375 C 3.765625 -27.367188 2.773438 -27.5625 1.328125 -27.5625 L 1.328125 -29.78125 L 8.1875 -29.78125 L 25.21875 -8.15625 L 25.21875 -25.359375 C 25.21875 -26.234375 25.066406 -26.773438 24.765625 -26.984375 C 24.234375 -27.367188 23.253906 -27.5625 21.828125 -27.5625 L 21.828125 -29.78125 L 31.828125 -29.78125 L 31.828125 -27.5625 C 30.535156 -27.5625 29.695312 -27.4375 29.3125 -27.1875 C 28.925781 -26.9375 28.675781 -26.664062 28.5625 -26.375 C 28.457031 -26.09375 28.40625 -25.753906 28.40625 -25.359375 L 28.40625 0 L 25.953125 0 L 7.9375 -22.859375 L 7.9375 -4.421875 C 7.9375 -3.566406 8.097656 -3.023438 8.421875 -2.796875 C 8.953125 -2.410156 9.945312 -2.21875 11.40625 -2.21875 L 11.40625 0 L 1.328125 0 Z M 1.328125 -2.21875 "/></g></g></g><g fill="#5271ff" fill-opacity="1"><g transform="translate(246.25695, 185.087855)"><g><path d="M -0.21875 -2.1875 C 0.882812 -2.1875 1.71875 -2.351562 2.28125 -2.6875 C 2.84375 -3.03125 3.273438 -3.582031 3.578125 -4.34375 L 14.296875 -29.78125 L 17.6875 -29.78125 L 27.5 -4.34375 C 27.863281 -3.5 28.265625 -2.925781 28.703125 -2.625 C 29.140625 -2.332031 29.992188 -2.1875 31.265625 -2.1875 L 31.265625 0 L 19 0 L 19 -2.1875 C 20.75 -2.1875 21.785156 -2.304688 22.109375 -2.546875 C 22.429688 -2.785156 22.582031 -3.039062 22.5625 -3.3125 C 22.550781 -3.59375 22.460938 -3.9375 22.296875 -4.34375 L 20.515625 -9.328125 L 8.96875 -9.328125 L 6.9375 -4.34375 C 6.625 -3.550781 6.710938 -2.992188 7.203125 -2.671875 C 7.691406 -2.347656 8.835938 -2.1875 10.640625 -2.1875 L 10.640625 0 L -0.21875 0 Z M 19.734375 -11.515625 L 15.125 -24.390625 L 9.875 -11.515625 Z M 19.734375 -11.515625 "/></g></g><g transform="translate(277.651783, 185.087855)"><g><path d="M 1.328125 -2.21875 C 2.628906 -2.21875 3.46875 -2.34375 3.84375 -2.59375 C 4.226562 -2.851562 4.476562 -3.125 4.59375 -3.40625 C 4.707031 -3.6875 4.765625 -4.023438 4.765625 -4.421875 L 4.765625 -25.359375 C 4.765625 -26.222656 4.609375 -26.765625 4.296875 -26.984375 C 3.765625 -27.367188 2.773438 -27.5625 1.328125 -27.5625 L 1.328125 -29.78125 L 8.1875 -29.78125 L 25.21875 -8.15625 L 25.21875 -25.359375 C 25.21875 -26.234375 25.066406 -26.773438 24.765625 -26.984375 C 24.234375 -27.367188 23.253906 -27.5625 21.828125 -27.5625 L 21.828125 -29.78125 L 31.828125 -29.78125 L 31.828125 -27.5625 C 30.535156 -27.5625 29.695312 -27.4375 29.3125 -27.1875 C 28.925781 -26.9375 28.675781 -26.664062 28.5625 -26.375 C 28.457031 -26.09375 28.40625 -25.753906 28.40625 -25.359375 L 28.40625 0 L 25.953125 0 L 7.9375 -22.859375 L 7.9375 -4.421875 C 7.9375 -3.566406 8.097656 -3.023438 8.421875 -2.796875 C 8.953125 -2.410156 9.945312 -2.21875 11.40625 -2.21875 L 11.40625 0 L 1.328125 0 Z M 1.328125 -2.21875 "/></g></g></g><g fill="#a6a6a6" fill-opacity="0.302"><g transform="translate(309.314133, 183.257459)"><g><path d="M 1.4375 -2.1875 C 2.832031 -2.1875 3.703125 -2.304688 4.046875 -2.546875 C 4.390625 -2.796875 4.59375 -3.054688 4.65625 -3.328125 C 4.726562 -3.609375 4.765625 -3.945312 4.765625 -4.34375 L 4.765625 -25.4375 C 4.765625 -26.300781 4.617188 -26.835938 4.328125 -27.046875 C 3.796875 -27.421875 2.832031 -27.609375 1.4375 -27.609375 L 1.4375 -29.78125 L 12.09375 -29.78125 C 20.644531 -29.78125 25.789062 -26.976562 27.53125 -21.375 C 28.050781 -19.625 28.3125 -17.742188 28.3125 -15.734375 C 28.3125 -13.734375 28.113281 -11.972656 27.71875 -10.453125 C 27.320312 -8.941406 26.769531 -7.601562 26.0625 -6.4375 C 24.695312 -4.226562 22.820312 -2.601562 20.4375 -1.5625 C 18.0625 -0.519531 15.410156 0 12.484375 0 L 1.4375 0 Z M 12.921875 -2.203125 C 19.734375 -2.203125 23.140625 -6.640625 23.140625 -15.515625 C 23.140625 -19.296875 22.195312 -22.285156 20.3125 -24.484375 C 18.4375 -26.691406 15.640625 -27.796875 11.921875 -27.796875 L 9.234375 -27.796875 L 9.234375 -2.203125 Z M 12.921875 -2.203125 "/></g></g><g transform="translate(339.179932, 183.257459)"><g><path d="M 16.6875 -26.40625 C 16 -27.332031 14.523438 -27.796875 12.265625 -27.796875 C 10.003906 -27.796875 8.445312 -27.046875 7.59375 -25.546875 C 7.300781 -25.023438 7.15625 -24.382812 7.15625 -23.625 C 7.15625 -22.238281 7.773438 -20.96875 9.015625 -19.8125 C 9.835938 -19.050781 10.972656 -18.265625 12.421875 -17.453125 C 13.867188 -16.648438 15.09375 -15.929688 16.09375 -15.296875 C 19.832031 -12.910156 21.703125 -10.300781 21.703125 -7.46875 C 21.703125 -4.945312 20.78125 -3.003906 18.9375 -1.640625 C 17.09375 -0.285156 14.703125 0.390625 11.765625 0.390625 C 8.835938 0.390625 6.488281 -0.1875 4.71875 -1.34375 C 2.945312 -2.5 2.0625 -3.828125 2.0625 -5.328125 C 2.0625 -6.835938 2.664062 -7.851562 3.875 -8.375 C 4.238281 -8.550781 4.640625 -8.640625 5.078125 -8.640625 C 5.910156 -8.640625 6.59375 -8.359375 7.125 -7.796875 C 7.664062 -7.242188 7.9375 -6.539062 7.9375 -5.6875 C 7.9375 -4.84375 7.554688 -4.125 6.796875 -3.53125 C 7.828125 -2.5 9.535156 -1.984375 11.921875 -1.984375 C 14.316406 -1.984375 15.957031 -2.789062 16.84375 -4.40625 C 17.15625 -4.96875 17.3125 -5.617188 17.3125 -6.359375 C 17.3125 -7.640625 16.648438 -8.828125 15.328125 -9.921875 C 14.640625 -10.492188 13.476562 -11.234375 11.84375 -12.140625 C 10.207031 -13.046875 8.921875 -13.804688 7.984375 -14.421875 C 4.523438 -16.640625 2.796875 -19.257812 2.796875 -22.28125 C 2.796875 -24.632812 3.6875 -26.539062 5.46875 -28 C 7.25 -29.457031 9.453125 -30.1875 12.078125 -30.1875 C 14.710938 -30.1875 16.875 -29.625 18.5625 -28.5 C 20.25 -27.375 21.09375 -26.003906 21.09375 -24.390625 C 21.09375 -23.515625 20.820312 -22.78125 20.28125 -22.1875 C 19.75 -21.601562 19.070312 -21.3125 18.25 -21.3125 C 16.988281 -21.3125 16.113281 -21.859375 15.625 -22.953125 C 15.476562 -23.285156 15.40625 -23.640625 15.40625 -24.015625 C 15.40625 -25.035156 15.832031 -25.832031 16.6875 -26.40625 Z M 16.6875 -26.40625 "/></g></g></g><g fill="#a6a6a6" fill-opacity="0.502"><g transform="translate(309.864049, 184.172665)"><g><path d="M 1.4375 -2.1875 C 2.832031 -2.1875 3.703125 -2.304688 4.046875 -2.546875 C 4.390625 -2.796875 4.59375 -3.054688 4.65625 -3.328125 C 4.726562 -3.609375 4.765625 -3.945312 4.765625 -4.34375 L 4.765625 -25.4375 C 4.765625 -26.300781 4.617188 -26.835938 4.328125 -27.046875 C 3.796875 -27.421875 2.832031 -27.609375 1.4375 -27.609375 L 1.4375 -29.78125 L 12.09375 -29.78125 C 20.644531 -29.78125 25.789062 -26.976562 27.53125 -21.375 C 28.050781 -19.625 28.3125 -17.742188 28.3125 -15.734375 C 28.3125 -13.734375 28.113281 -11.972656 27.71875 -10.453125 C 27.320312 -8.941406 26.769531 -7.601562 26.0625 -6.4375 C 24.695312 -4.226562 22.820312 -2.601562 20.4375 -1.5625 C 18.0625 -0.519531 15.410156 0 12.484375 0 L 1.4375 0 Z M 12.921875 -2.203125 C 19.734375 -2.203125 23.140625 -6.640625 23.140625 -15.515625 C 23.140625 -19.296875 22.195312 -22.285156 20.3125 -24.484375 C 18.4375 -26.691406 15.640625 -27.796875 11.921875 -27.796875 L 9.234375 -27.796875 L 9.234375 -2.203125 Z M 12.921875 -2.203125 "/></g></g><g transform="translate(339.729849, 184.172665)"><g><path d="M 16.6875 -26.40625 C 16 -27.332031 14.523438 -27.796875 12.265625 -27.796875 C 10.003906 -27.796875 8.445312 -27.046875 7.59375 -25.546875 C 7.300781 -25.023438 7.15625 -24.382812 7.15625 -23.625 C 7.15625 -22.238281 7.773438 -20.96875 9.015625 -19.8125 C 9.835938 -19.050781 10.972656 -18.265625 12.421875 -17.453125 C 13.867188 -16.648438 15.09375 -15.929688 16.09375 -15.296875 C 19.832031 -12.910156 21.703125 -10.300781 21.703125 -7.46875 C 21.703125 -4.945312 20.78125 -3.003906 18.9375 -1.640625 C 17.09375 -0.285156 14.703125 0.390625 11.765625 0.390625 C 8.835938 0.390625 6.488281 -0.1875 4.71875 -1.34375 C 2.945312 -2.5 2.0625 -3.828125 2.0625 -5.328125 C 2.0625 -6.835938 2.664062 -7.851562 3.875 -8.375 C 4.238281 -8.550781 4.640625 -8.640625 5.078125 -8.640625 C 5.910156 -8.640625 6.59375 -8.359375 7.125 -7.796875 C 7.664062 -7.242188 7.9375 -6.539062 7.9375 -5.6875 C 7.9375 -4.84375 7.554688 -4.125 6.796875 -3.53125 C 7.828125 -2.5 9.535156 -1.984375 11.921875 -1.984375 C 14.316406 -1.984375 15.957031 -2.789062 16.84375 -4.40625 C 17.15625 -4.96875 17.3125 -5.617188 17.3125 -6.359375 C 17.3125 -7.640625 16.648438 -8.828125 15.328125 -9.921875 C 14.640625 -10.492188 13.476562 -11.234375 11.84375 -12.140625 C 10.207031 -13.046875 8.921875 -13.804688 7.984375 -14.421875 C 4.523438 -16.640625 2.796875 -19.257812 2.796875 -22.28125 C 2.796875 -24.632812 3.6875 -26.539062 5.46875 -28 C 7.25 -29.457031 9.453125 -30.1875 12.078125 -30.1875 C 14.710938 -30.1875 16.875 -29.625 18.5625 -28.5 C 20.25 -27.375 21.09375 -26.003906 21.09375 -24.390625 C 21.09375 -23.515625 20.820312 -22.78125 20.28125 -22.1875 C 19.75 -21.601562 19.070312 -21.3125 18.25 -21.3125 C 16.988281 -21.3125 16.113281 -21.859375 15.625 -22.953125 C 15.476562 -23.285156 15.40625 -23.640625 15.40625 -24.015625 C 15.40625 -25.035156 15.832031 -25.832031 16.6875 -26.40625 Z M 16.6875 -26.40625 "/></g></g></g><g fill="#8c52ff" fill-opacity="1"><g transform="translate(310.413952, 185.087855)"><g><path d="M 1.4375 -2.1875 C 2.832031 -2.1875 3.703125 -2.304688 4.046875 -2.546875 C 4.390625 -2.796875 4.59375 -3.054688 4.65625 -3.328125 C 4.726562 -3.609375 4.765625 -3.945312 4.765625 -4.34375 L 4.765625 -25.4375 C 4.765625 -26.300781 4.617188 -26.835938 4.328125 -27.046875 C 3.796875 -27.421875 2.832031 -27.609375 1.4375 -27.609375 L 1.4375 -29.78125 L 12.09375 -29.78125 C 20.644531 -29.78125 25.789062 -26.976562 27.53125 -21.375 C 28.050781 -19.625 28.3125 -17.742188 28.3125 -15.734375 C 28.3125 -13.734375 28.113281 -11.972656 27.71875 -10.453125 C 27.320312 -8.941406 26.769531 -7.601562 26.0625 -6.4375 C 24.695312 -4.226562 22.820312 -2.601562 20.4375 -1.5625 C 18.0625 -0.519531 15.410156 0 12.484375 0 L 1.4375 0 Z M 12.921875 -2.203125 C 19.734375 -2.203125 23.140625 -6.640625 23.140625 -15.515625 C 23.140625 -19.296875 22.195312 -22.285156 20.3125 -24.484375 C 18.4375 -26.691406 15.640625 -27.796875 11.921875 -27.796875 L 9.234375 -27.796875 L 9.234375 -2.203125 Z M 12.921875 -2.203125 "/></g></g><g transform="translate(340.279751, 185.087855)"><g><path d="M 16.6875 -26.40625 C 16 -27.332031 14.523438 -27.796875 12.265625 -27.796875 C 10.003906 -27.796875 8.445312 -27.046875 7.59375 -25.546875 C 7.300781 -25.023438 7.15625 -24.382812 7.15625 -23.625 C 7.15625 -22.238281 7.773438 -20.96875 9.015625 -19.8125 C 9.835938 -19.050781 10.972656 -18.265625 12.421875 -17.453125 C 13.867188 -16.648438 15.09375 -15.929688 16.09375 -15.296875 C 19.832031 -12.910156 21.703125 -10.300781 21.703125 -7.46875 C 21.703125 -4.945312 20.78125 -3.003906 18.9375 -1.640625 C 17.09375 -0.285156 14.703125 0.390625 11.765625 0.390625 C 8.835938 0.390625 6.488281 -0.1875 4.71875 -1.34375 C 2.945312 -2.5 2.0625 -3.828125 2.0625 -5.328125 C 2.0625 -6.835938 2.664062 -7.851562 3.875 -8.375 C 4.238281 -8.550781 4.640625 -8.640625 5.078125 -8.640625 C 5.910156 -8.640625 6.59375 -8.359375 7.125 -7.796875 C 7.664062 -7.242188 7.9375 -6.539062 7.9375 -5.6875 C 7.9375 -4.84375 7.554688 -4.125 6.796875 -3.53125 C 7.828125 -2.5 9.535156 -1.984375 11.921875 -1.984375 C 14.316406 -1.984375 15.957031 -2.789062 16.84375 -4.40625 C 17.15625 -4.96875 17.3125 -5.617188 17.3125 -6.359375 C 17.3125 -7.640625 16.648438 -8.828125 15.328125 -9.921875 C 14.640625 -10.492188 13.476562 -11.234375 11.84375 -12.140625 C 10.207031 -13.046875 8.921875 -13.804688 7.984375 -14.421875 C 4.523438 -16.640625 2.796875 -19.257812 2.796875 -22.28125 C 2.796875 -24.632812 3.6875 -26.539062 5.46875 -28 C 7.25 -29.457031 9.453125 -30.1875 12.078125 -30.1875 C 14.710938 -30.1875 16.875 -29.625 18.5625 -28.5 C 20.25 -27.375 21.09375 -26.003906 21.09375 -24.390625 C 21.09375 -23.515625 20.820312 -22.78125 20.28125 -22.1875 C 19.75 -21.601562 19.070312 -21.3125 18.25 -21.3125 C 16.988281 -21.3125 16.113281 -21.859375 15.625 -22.953125 C 15.476562 -23.285156 15.40625 -23.640625 15.40625 -24.015625 C 15.40625 -25.035156 15.832031 -25.832031 16.6875 -26.40625 Z M 16.6875 -26.40625 "/></g></g></g><path stroke-linecap="butt" transform="matrix(3.001512, 0, 0, 3.106796, 252.391158, 132.52496)" fill="none" stroke-linejoin="miter" d="M -0.000177606 -0.000490176 L 38.731598 -0.000490176 " stroke="#ff4949" stroke-width="1" stroke-opacity="1" stroke-miterlimit="4"/><path stroke-linecap="butt" transform="matrix(3.004991, -0.000000000000001304, 0.000000000000001349, 3.106796, 15.146626, 168.485758)" fill="none" stroke-linejoin="miter" d="M 0.000602796 -0.00044523 L 63.397741 -0.00044523 " stroke="#ff4949" stroke-width="1" stroke-opacity="1" stroke-miterlimit="4"/></svg>